HIERARCHY
ROOT Hips
{
	OFFSET 0.000000 0.000000 0.000000 
	CHANNELS 6 Xposition Yposition Zposition Zrotation Yrotation Xrotation
	JOINT LeftUpLeg
	{
		OFFSET 1.363060 -1.794630 0.839290 
		CHANNELS 3 Zrotation Yrotation Xrotation
		JOINT LeftLeg
		{
			OFFSET 2.448110 -6.726130 0.000000 
			CHANNELS 3 Zrotation Yrotation Xrotation
			JOINT LeftFoot
			{
				OFFSET 2.562200 -7.039590 0.000000 
				CHANNELS 3 Zrotation Yrotation Xrotation
				JOINT LeftToeBase
				{
					OFFSET 0.157640 -0.433110 2.322550 
					CHANNELS 3 Zrotation Yrotation Xrotation
					End Site
					{
						OFFSET 0.000000 0.000000 0.000000 
					}
				}
			}
		}
	}
	JOINT RightUpLeg
	{
		OFFSET -1.305520 -1.794630 0.839290 
		CHANNELS 3 Zrotation Yrotation Xrotation
		JOINT RightLeg
		{
			OFFSET -2.542530 -6.985550 0.000000 
			CHANNELS 3 Zrotation Yrotation Xrotation
			JOINT RightFoot
			{
				OFFSET -2.568260 -7.056230 0.000000 
				CHANNELS 3 Zrotation Yrotation Xrotation
				JOINT RightToeBase
				{
					OFFSET -0.164730 -0.452590 2.363150 
					CHANNELS 3 Zrotation Yrotation Xrotation
					End Site
					{
						OFFSET 0.000000 0.000000 0.000000 
					}
				}
			}
		}
	}
	JOINT Spine
	{
		OFFSET 0.028270 2.035590 -0.193380 
		CHANNELS 3 Zrotation Yrotation Xrotation
		JOINT Spine1
		{
			OFFSET 0.056720 2.048850 -0.042750 
			CHANNELS 3 Zrotation Yrotation Xrotation
			JOINT Neck1
			{
				OFFSET -0.054170 1.746240 0.172020 
				CHANNELS 3 Zrotation Yrotation Xrotation
				JOINT Head
				{
					OFFSET 0.104070 1.761360 -0.123970 
					CHANNELS 3 Zrotation Yrotation Xrotation
					End Site
					{
						OFFSET 0.000000 0.000000 0.000000 
					}
				}
			}
			JOINT LeftArm
			{
				OFFSET 3.362410 1.200890 -0.311210 
				CHANNELS 3 Zrotation Yrotation Xrotation
				JOINT LeftForeArm
				{
					OFFSET 4.983000 -0.000000 -0.000000 
					CHANNELS 3 Zrotation Yrotation Xrotation
					JOINT LeftHand
					{
						OFFSET 3.483560 -0.000000 -0.000000 
						CHANNELS 3 Zrotation Yrotation Xrotation
						JOINT LeftHandIndex1
						{
							OFFSET 0.715260 -0.000000 -0.000000 
							CHANNELS 3 Zrotation Yrotation Xrotation
							End Site
							{
								OFFSET 0.000000 0.000000 0.000000 
							}
						}
					}
				}
			}
			JOINT RightArm
			{
				OFFSET -3.136600 1.374050 -0.404650 
				CHANNELS 3 Zrotation Yrotation Xrotation
				JOINT RightForeArm
				{
					OFFSET -5.241900 -0.000000 -0.000000 
					CHANNELS 3 Zrotation Yrotation Xrotation
					JOINT RightHand
					{
						OFFSET -3.444170 -0.000000 -0.000000 
						CHANNELS 3 Zrotation Yrotation Xrotation
						JOINT RightHandIndex1
						{
							OFFSET -0.622530 -0.000000 -0.000000 
							CHANNELS 3 Zrotation Yrotation Xrotation
							End Site
							{
								OFFSET 0.000000 0.000000 0.000000 
							}
						}
					}
				}
			}
		}
	}
}
MOTION
Frames: 13
Frame Time: 0.041667
1.158927 18.247147 9.929912 -9.119781 -1.943012 2.130052 -15.700356 -23.741785 13.006047 -3.172384 -0.476875 3.849283 -9.716066 30.038022 -11.972047 0.120400 -2.237100 -6.161300 23.685103 20.831922 2.937539 2.429611 -3.834691 13.821531 4.541782 -14.484950 -2.745939 -0.201600 2.891400 -7.976400 19.331988 -1.591383 23.804961 -7.494943 -0.515118 -16.414097 10.499555 -2.069674 -10.901552 1.808400 -1.743900 0.970300 -76.495176 15.891569 68.114741 127.226653 -51.882310 -97.288786 -0.442678 0.150546 -25.124190 -7.125000 0.000000 0.000000 63.131650 -15.155967 71.163970 -132.659120 50.315324 -99.142958 -0.212263 0.154571 -18.822381 7.125000 0.000000 0.000000 
1.170940 18.267590 9.931071 -8.953102 -2.277296 2.388109 -15.928949 -23.965967 13.067230 -3.206581 -0.544413 3.645922 -9.804199 30.352456 -12.424552 0.096600 -2.004500 -5.518200 23.476925 21.178038 2.948870 2.468947 -3.726744 13.505798 4.595139 -14.607279 -2.485441 -0.191000 2.814300 -7.762300 18.601483 -1.583928 23.800545 -7.518896 -0.576467 -16.547917 10.999479 -2.339046 -9.753774 1.864900 -1.825700 1.221800 -76.258708 15.920346 68.351037 127.135868 -51.926236 -97.212465 -0.447106 0.172160 -24.809592 -7.125000 0.000000 0.000000 62.502122 -15.089700 71.499958 -132.902804 50.189270 -99.321459 -0.179120 0.142341 -18.077151 7.125000 0.000000 0.000000 
1.178422 18.290562 9.932336 -8.701068 -2.377229 3.036681 -16.178569 -24.542081 12.927100 -3.247764 -0.602396 3.370230 -9.937170 30.805244 -12.832426 0.075000 -1.766700 -4.861300 23.168334 21.597273 2.751112 2.527074 -3.617439 13.119711 4.713440 -14.914936 -2.404660 -0.178300 2.720100 -7.500500 17.648945 -1.396875 22.711351 -7.525986 -0.641733 -16.464167 12.106405 -2.672539 -8.514393 2.068600 -1.942800 1.509200 -75.758475 16.392087 68.741775 127.252222 -51.877274 -97.300157 -0.450380 0.166351 -24.166411 -7.125000 0.000000 0.000000 61.831247 -15.372724 71.889698 -133.117921 50.106899 -99.491720 -0.151441 0.143689 -18.008947 7.125000 0.000000 0.000000 
1.181478 18.317539 9.936551 -8.675848 -2.192783 3.884587 -16.302612 -25.426662 12.890664 -3.297428 -0.697610 2.949360 -10.147996 31.459985 -13.184559 0.060300 -1.584700 -4.359300 23.056836 21.987467 2.577739 2.612034 -3.474214 12.577942 4.878852 -15.386712 -2.475568 -0.165100 2.618000 -7.217000 17.624615 -1.183292 20.238023 -7.814725 -0.810474 -16.131165 13.446176 -2.986162 -7.348160 2.353500 -2.054700 1.754500 -75.169779 17.418234 69.289105 127.556080 -51.740842 -97.527433 -0.463670 0.125958 -23.050377 -7.125000 0.000000 0.000000 61.076202 -15.990592 72.420917 -133.450139 49.989860 -99.747652 -0.138331 0.153182 -18.444138 7.125000 0.000000 0.000000 
1.180318 18.346517 9.946983 -9.019668 -1.829956 4.758354 -16.223043 -26.565315 13.134741 -3.357644 -0.861128 2.369930 -10.408177 32.234706 -13.694458 0.041800 -1.319900 -3.629400 23.306990 22.419438 2.598684 2.714644 -3.289617 11.899014 5.072806 -15.974418 -2.641475 -0.135600 2.373700 -6.539600 18.845686 -1.024732 17.121536 -8.367032 -1.076574 -15.638687 13.886470 -3.287311 -6.164184 2.420600 -2.130700 1.965200 -74.660867 18.533372 69.838786 127.695959 -51.679060 -97.625701 -0.509931 0.062590 -21.950746 -7.125000 0.000000 0.000000 60.370005 -16.648844 72.888879 -133.795283 49.861660 -100.006738 -0.129567 0.165599 -18.862382 7.125000 0.000000 0.000000 
1.177263 18.369805 9.955308 -9.426143 -1.503565 5.894594 -16.077005 -27.709355 13.168770 -3.410928 -0.992899 1.864339 -10.672264 33.020429 -14.323571 0.027600 -1.073300 -2.950600 23.455987 22.930058 2.330538 2.805024 -3.156393 11.292468 5.231993 -16.496571 -2.752509 -0.110200 2.140800 -5.895000 20.818617 -0.662493 13.238541 -9.016093 -1.322656 -14.886195 14.261895 -3.655967 -4.905466 2.500000 -2.225600 2.202800 -74.328523 19.579236 70.215013 127.592785 -51.734202 -97.538571 -0.582475 -0.023000 -21.354891 -7.125000 0.000000 0.000000 59.772613 -17.282710 73.112531 -134.054317 49.772083 -100.205635 -0.138945 0.187954 -18.444079 7.125000 0.000000 0.000000 
1.174523 18.388141 9.957521 -9.662325 -1.283498 7.211283 -16.057586 -28.727877 12.927646 -3.450958 -1.051788 1.546833 -10.913642 33.752427 -14.972775 0.018000 -0.865300 -2.378400 23.238673 23.414446 1.693806 2.874077 -3.094314 10.820966 5.327444 -16.856172 -2.738730 -0.093400 1.971100 -5.425800 23.075898 -0.030875 8.754605 -9.591476 -1.505298 -13.956173 15.013281 -3.873115 -4.041407 2.725700 -2.278000 2.354100 -74.267378 20.596491 70.275815 127.372013 -51.840564 -97.362720 -0.654205 -0.111315 -21.381672 -7.125000 0.000000 0.000000 59.338416 -17.807682 73.051440 -134.162267 49.753386 -100.290580 -0.155863 0.205965 -17.232778 7.125000 0.000000 0.000000 
1.172626 18.402261 9.957415 -9.849132 -1.096894 8.526220 -16.109110 -29.846054 12.753059 -3.492923 -1.119018 1.232033 -11.159915 34.509276 -15.807789 0.005400 -0.472400 -1.298000 22.900130 23.783316 0.931030 2.931156 -3.053657 10.395892 5.389460 -17.133712 -2.589489 -0.083500 1.863400 -5.128200 25.340729 0.790658 4.248172 -10.070453 -1.646531 -12.987983 15.810115 -3.921120 -3.687346 2.995800 -2.285100 2.376100 -74.465872 21.527615 70.048590 127.021066 -51.984013 -97.103801 -0.702888 -0.176956 -21.958756 -7.125000 0.000000 0.000000 59.234247 -18.281018 72.701850 -134.104089 49.809142 -100.246799 -0.163690 0.208262 -15.973067 7.125000 0.000000 0.000000 
1.173785 18.410375 9.956572 -10.052306 -0.935539 9.841836 -16.072939 -31.010786 12.566350 -3.532472 -1.189043 0.919916 -11.389858 35.230049 -16.801782 0.000100 0.055500 0.152400 22.575811 24.003109 0.048767 2.974181 -3.035292 10.036618 5.410133 -17.312114 -2.290915 -0.091900 1.955700 -5.383200 27.153571 1.828088 -0.154357 -10.451030 -1.708857 -11.867652 16.355231 -3.906661 -4.470905 3.204600 -2.354600 2.110300 -74.855782 22.301994 69.667594 126.446926 -52.185492 -96.724671 -0.713071 -0.195347 -23.053365 -7.125000 0.000000 0.000000 59.516489 -18.918540 72.131333 -133.881857 49.929207 -100.095081 -0.179983 0.218564 -15.164425 7.125000 0.000000 0.000000 
1.176736 18.412061 9.953832 -10.197757 -0.952005 11.354325 -15.877529 -32.129160 12.106280 -3.562333 -1.212069 0.694042 -11.627736 35.981983 -17.927500 0.008000 0.576200 1.583300 22.185000 24.179541 -1.166555 2.991143 -3.098649 9.883335 5.329750 -17.231553 -1.887142 -0.101800 2.057800 -5.665400 27.910051 3.183595 -4.969967 -10.721280 -1.636411 -10.495913 17.292665 -3.895927 -5.694931 3.525700 -2.478200 1.751900 -75.196680 23.048448 69.316404 125.744240 -52.402953 -96.294050 -0.678013 -0.176229 -24.529208 -7.125000 0.000000 0.000000 60.148789 -19.846756 71.497805 -133.371087 50.235514 -99.706196 -0.113041 0.151581 -14.695487 7.125000 0.000000 0.000000 
1.175576 18.408584 9.951725 -10.290539 -1.125805 12.906562 -15.543812 -33.293837 11.578606 -3.588021 -1.227672 0.458936 -11.929536 36.896277 -19.196504 0.025300 1.027500 2.824400 21.850651 24.391286 -2.477155 2.991528 -3.203374 9.870824 5.200552 -17.013883 -1.491933 -0.103200 2.072000 -5.704600 27.434853 4.513687 -9.556045 -10.834204 -1.473682 -9.293941 19.020436 -4.121245 -5.353507 4.023000 -2.595100 1.813400 -75.321250 23.800016 69.164496 125.063917 -52.606259 -95.879203 -0.620049 -0.159635 -25.844392 -7.125000 0.000000 0.000000 61.117733 -21.017546 70.847408 -132.572254 50.686606 -99.131733 -0.143948 0.152346 -14.594349 7.125000 0.000000 0.000000 
1.167989 18.405738 9.957099 -10.414038 -1.250462 13.820529 -15.226975 -34.191966 11.398692 -3.608368 -1.281773 0.203501 -12.195098 37.651958 -20.168137 0.040500 1.298100 3.569600 21.803819 24.572709 -3.188975 2.994217 -3.241249 9.827959 5.130593 -16.900517 -1.276171 -0.105300 2.092400 -5.761000 26.742161 5.221968 -11.818398 -10.842265 -1.311617 -8.657883 20.012601 -4.337472 -5.562287 4.287100 -2.739500 1.767800 -75.329470 24.160045 69.115581 124.348405 -52.848395 -95.417317 -0.584533 -0.148550 -26.484156 -7.125000 0.000000 0.000000 62.256470 -22.054616 70.030676 -131.778250 51.138040 -98.531190 -0.108941 0.107141 -15.069176 7.125000 0.000000 0.000000 
1.147757 18.405949 9.977542 -10.493036 -1.067782 13.860416 -15.025935 -34.598284 11.574267 -3.614745 -1.358702 -0.015468 -12.295860 37.883626 -20.322922 0.040800 1.303700 3.584900 22.058433 24.840968 -2.880327 3.024524 -3.128139 9.570079 5.280411 -17.278154 -1.544648 -0.091300 1.949000 -5.364800 26.541479 5.101107 -11.084293 -10.803899 -1.247988 -8.665669 20.647153 -4.452145 -6.858811 4.462600 -2.933900 1.518200 -75.296928 24.059528 69.043087 123.685446 -53.104151 -94.971817 -0.578572 -0.118272 -26.509664 -7.125000 0.000000 0.000000 63.362017 -22.758038 69.126213 -131.180258 51.467570 -98.084545 -0.119557 0.090361 -15.892783 7.125000 0.000000 0.000000 
